<?xml version="1.0" standalone="no"?><!DOCTYPE svg PUBLIC "-//W3C//DTD SVG 1.1//EN"
  "http://www.w3.org/Graphics/SVG/1.1/DTD/svg11.dtd">
<svg t="1648484603081" class="icon" viewBox="0 0 1024 1024" version="1.1" xmlns="http://www.w3.org/2000/svg" p-id="5109"
     width="200" height="200">
  <defs>
    <style type="text/css"></style>
  </defs>
  <path
    d="M412.216889 185.173333a343.950222 343.950222 0 0 0-11.264 147.740445 340.650667 340.650667 0 0 0 436.451555 278.300444c-38.343111 126.008889-150.300444 223.345778-282.908444 239.502222a340.992 340.992 0 0 1-298.552889-112.469333C190.407111 664.064 160.995556 568.32 173.056 468.650667c16.156444-132.835556 113.322667-245.020444 239.160889-283.420445zM511.146667 56.888889a463.644444 463.644444 0 0 0-62.805334 4.266667c-201.557333 27.306667-363.406222 191.374222-387.982222 393.671111C26.680889 731.704889 241.493333 967.111111 511.146667 967.111111c18.773333 0 37.831111-1.137778 57.059555-3.527111 201.898667-24.632889 365.681778-186.766222 392.931556-388.721778 2.958222-21.788444 4.323556-43.292444 4.266666-64.512-0.113778-33.166222-27.420444-55.296-56.661333-55.296a58.026667 58.026667 0 0 0-34.929778 11.776 225.28 225.28 0 0 1-135.566222 45.112889c-10.695111 0-21.617778-0.739556-32.654222-2.275555-98.531556-13.767111-178.460444-93.809778-192.170667-192.568889a227.384889 227.384889 0 0 1 42.723556-168.561778c23.608889-37.376 1.422222-91.534222-43.463111-91.704889h-1.592889z"
    fill="" p-id="5110"></path>
</svg>
