<svg xmlns="http://www.w3.org/2000/svg" enable-background="new 0 0 64 64" viewBox="0 0 64 64"><linearGradient id="a" x1="0" x2="26" y1="14.939" y2="14.939" gradientTransform="matrix(1 0 0 -1 0 66)" gradientUnits="userSpaceOnUse"><stop offset="0" stop-color="#e9a254"/><stop offset="1" stop-color="#f4bb79"/></linearGradient><path fill="url(#a)" d="M23.1,55.1c3.8-4,3.7-10.3-0.2-14.1c-3.9-3.7-10-3.7-13.9,0C5,44.8,0,64,0,64S19.2,59,23.1,55.1z"/><linearGradient id="b" x1="16.828" x2="37.05" y1="28.889" y2="28.889" gradientTransform="matrix(1 0 0 -1 0 66)" gradientUnits="userSpaceOnUse"><stop offset="0" stop-color="#474f72"/><stop offset="1" stop-color="#878c9f"/></linearGradient><path fill="url(#b)" d="M37,45l-1.6,1.6c-0.8,0.8-2,0.8-2.8,0L17.4,31.4c-0.8-0.8-0.8-2,0-2.8L19,27L37,45z"/><linearGradient id="c" x1="41.525" x2="41.525" y1="21.05" y2="66" gradientTransform="matrix(1 0 0 -1 0 66)" gradientUnits="userSpaceOnUse"><stop offset="0" stop-color="#d4d8e1"/><stop offset="1" stop-color="#f3f4f5"/></linearGradient><path fill="url(#c)" d="M64,0c0,11.5-4.6,22.6-12.7,30.7L37,45L19,27l14.2-14.3C41.4,4.6,52.5,0,64,0z"/><linearGradient id="d" x1="11" x2="24.5" y1="19.5" y2="19.5" gradientTransform="matrix(1 0 0 -1 0 66)" gradientUnits="userSpaceOnUse"><stop offset="0" stop-color="#fbcc88"/><stop offset="1" stop-color="#ffe5c3"/></linearGradient><path fill="url(#d)" d="M23,48c1.7-2.2,1.2-5.3-1-7c-1.8-1.3-4.2-1.3-6,0c-2,2-5,12-5,12S21.1,50,23,48z"/><linearGradient id="e" x1="7.016" x2="32" y1="45.5" y2="45.5" gradientTransform="matrix(1 0 0 -1 0 66)" gradientUnits="userSpaceOnUse"><stop offset="0" stop-color="#da5466"/><stop offset="1" stop-color="#f4929c"/></linearGradient><path fill="url(#e)" d="M32,14h-1.6c-8.6,0-16.8,3.4-22.9,9.5c-0.7,0.7-0.7,1.8,0,2.4c0.4,0.4,1.1,0.6,1.7,0.4
		c3.2-0.9,6.7-0.7,9.8,0.6L32,14z"/><linearGradient id="f" x1="-1876.984" x2="-1852" y1="1929.5" y2="1929.5" gradientTransform="rotate(-90 -1853 33)" gradientUnits="userSpaceOnUse"><stop offset="0" stop-color="#da5466"/><stop offset="1" stop-color="#f4929c"/></linearGradient><path fill="url(#f)" d="M50,32v1.6c0,8.6-3.4,16.8-9.5,22.9c-0.7,0.7-1.8,0.7-2.4,0c-0.4-0.4-0.6-1.1-0.4-1.7c0.9-3.2,0.7-6.7-0.6-9.8
		L50,32z"/><linearGradient id="g" x1="58.06" x2="58.06" y1="54.12" y2="66" gradientTransform="matrix(1 0 0 -1 0 66)" gradientUnits="userSpaceOnUse"><stop offset="0" stop-color="#da5466"/><stop offset="1" stop-color="#f4929c"/></linearGradient><path fill="url(#g)" d="M64,0c0,4-0.6,8-1.7,11.9C57,11.1,52.9,7,52.1,1.7C56,0.6,60,0,64,0z"/><linearGradient id="h" x1="41" x2="53" y1="49" y2="49" gradientTransform="matrix(1 0 0 -1 0 66)" gradientUnits="userSpaceOnUse"><stop offset="0" stop-color="#9dd5df"/><stop offset="1" stop-color="#c3e1f5"/></linearGradient><circle cx="47" cy="17" r="6" fill="url(#h)"/><linearGradient id="i" x1="47" x2="47" y1="42" y2="56" gradientTransform="matrix(1 0 0 -1 0 66)" gradientUnits="userSpaceOnUse"><stop offset="0" stop-color="#949aaf"/><stop offset="1" stop-color="#c6ccda"/></linearGradient><path fill="url(#i)" d="M47,24c-3.9,0-7-3.1-7-7s3.1-7,7-7s7,3.1,7,7S50.9,24,47,24z M47,12c-2.8,0-5,2.2-5,5s2.2,5,5,5s5-2.2,5-5
		S49.8,12,47,12z"/><linearGradient id="j" x1="30" x2="30" y1="23" y2="41" gradientTransform="matrix(1 0 0 -1 0 66)" gradientUnits="userSpaceOnUse"><stop offset="0" stop-color="#da5466"/><stop offset="1" stop-color="#f4929c"/></linearGradient><path fill="url(#j)" d="M23,43c-0.5,0-1-0.2-1.4-0.6c-0.8-0.8-0.8-2,0-2.8l14-14c0.8-0.8,2-0.8,2.8,0c0.8,0.8,0.8,2,0,2.8l-14,14
			C24,42.8,23.5,43,23,43z"/></svg>