<?xml version="1.0" standalone="no"?><!DOCTYPE svg PUBLIC "-//W3C//DTD SVG 1.1//EN" "http://www.w3.org/Graphics/SVG/1.1/DTD/svg11.dtd"><svg t="1675009262451" class="icon" viewBox="0 0 1024 1024" version="1.1" xmlns="http://www.w3.org/2000/svg" p-id="1473" xmlns:xlink="http://www.w3.org/1999/xlink" width="200" height="200"><path d="M139.6 581.7a401.6 375 0 1 0 803.2 0 401.6 375 0 1 0-803.2 0Z" fill="#E95257" p-id="1474"></path><path d="M494.5 172.4c52.8 0 104.1 9.7 152.3 28.7 46.5 18.4 88.2 44.6 124 78.1 35.7 33.3 63.7 72.1 83.2 115.2 20.2 44.5 30.4 91.8 30.4 140.6s-10.2 96.1-30.4 140.6c-19.5 43.1-47.5 81.9-83.2 115.2-35.8 33.4-77.5 59.7-124 78.1-48.2 19-99.4 28.7-152.3 28.7s-104.1-9.7-152.3-28.7c-46.5-18.4-88.2-44.6-124-78.1-35.7-33.3-63.7-72.1-83.2-115.2-20.2-44.5-30.4-91.8-30.4-140.6s10.2-96.1 30.4-140.6c19.5-43.1 47.5-81.9 83.2-115.2 35.8-33.4 77.5-59.7 124-78.1 48.2-19.1 99.4-28.7 152.3-28.7m0-23.4C266.3 149 81.2 321.8 81.2 535s185 386 413.3 386 413.3-172.8 413.3-386-185.1-386-413.3-386z" fill="#3F3F3F" p-id="1475"></path><path d="M408.7 91.3v203.3c0 6.7-2.6 13.1-7.2 18-25.1 26.1-108.9 112-141.7 128.4-38.9 19.4 189.6-41.6 213.7-77.7 13-19.4 38.9 233.1 38.9 233.1s38.9-129.3 38.9-213.7c0-19.4 200.7-13 200.7-13s-93.8-42-148.9-97.1c-13-13 97.1-155.4 84.2-181.3-5.5-11-150.5 117.6-194.6 157-6.1 5.4-15.7 3.2-18.7-4.4-14.4-36.7-39.4-126.7-65.3-152.6z" fill="#004127" p-id="1476"></path><path d="M393.1 67.9v203.3c0 6.7-2.6 13.1-7.2 18-25.1 26.1-108.9 112-141.7 128.4-38.9 19.4 189.6-41.6 213.6-77.7 13-19.4 38.9 233.1 38.9 233.1s38.9-129.3 38.9-213.7c0-19.4 200.7-13 200.7-13s-93.8-42-148.9-97.1c-13-13 97.1-155.4 84.2-181.3-5.5-11-150.5 117.6-194.6 157-6.1 5.4-15.7 3.2-18.7-4.4C444 183.8 419 93.8 393.1 67.9z" fill="#0FAE6F" p-id="1477"></path></svg>